#!OML:ASF E:\Steps\Project 1\Capture day 1\Session 2\Subject.ASF
:FULLY-SPECIFIED
:DEGREES
530
root 3.48777 17.9708 17.7613 -153.497 -2.53643 173.633
lowerback -22.107 -2.35869 -5.14465
upperback 0.577301 -1.98229 0.25961
thorax 13.3172 -1.34552 2.56536
lowerneck 0.491126 -4.58408 -0.0425715
upperneck 24.5826 -3.89573 0.106297
head 7.45566 -0.943587 -0.0759834
rclavicle -1.59028e-014 -1.78906e-014
rhumerus -44.6302 -15.598 -73.7103
rradius 33.9476
rwrist -4.38282
rhand -9.35279 -58.051
rfingers 7.12502
rthumb 16.6068 632.64
lclavicle -1.59028e-014 -1.78906e-014
lhumerus -30.6444 -2.12742 82.5886
lradius 29.0717
lwrist -1.23986
lhand -22.108 -14.4938
lfingers 7.12502
lthumb 4.30445 15.4424
rfemur -35.7099 7.66882 10.5263
rtibia 22.2124
rfoot -19.9757 -6.07015
rtoes -23.9896
lfemur -33.5347 -15.0442 -17.4367
ltibia 36.0306
lfoot -14.1294 4.77243
ltoes -36.2865
531
root 3.5079 17.9774 17.739 -153.471 -2.55258 173.534
lowerback -22.2193 -2.40725 -5.21362
upperback 0.609261 -2.02301 0.284164
thorax 13.4265 -1.37208 2.61589
lowerneck 0.131117 -4.79565 -0.287748
upperneck 24.9054 -4.18848 0.204705
head 7.63677 -1.09063 -0.0272787
rclavicle 1.98785e-016 -3.18055e-015
rhumerus -44.4341 -15.3349 -73.85
rradius 34.0189
rwrist -4.97796
rhand -9.29084 -57.5373
rfingers 7.12502
rthumb 16.6665 633.158
lclavicle 1.98785e-016 -3.18055e-015
lhumerus -30.6093 -1.90482 82.5545
lradius 28.8058
lwrist -1.18002
lhand -21.6909 -14.6773
lfingers 7.12502
lthumb 4.70726 15.2504
rfemur -35.5893 7.75699 10.4734
rtibia 22.1581
rfoot -20.095 -6.14075
rtoes -23.5221
lfemur -33.7903 -15.1887 -17.9839
ltibia 35.4887
lfoot -14.4869 5.06742
ltoes -34.2507
532
root 3.52762 17.9841 17.7185 -153.409 -2.5416 173.494
lowerback -22.2836 -2.41278 -5.22698
upperback 0.537696 -2.03237 0.29196
thorax 13.3808 -1.37812 2.62842
lowerneck 0.44417 -4.61886 -0.211087
upperneck 24.6962 -3.90468 0.0400671
head 7.50484 -0.962495 -0.0703641
rclavicle 8.54774e-015 -9.93923e-015
rhumerus -44.4332 -15.1975 -73.9453
rradius 34.1226
rwrist -5.19763
rhand -8.82871 -57.3604
rfingers 7.12502
rthumb 17.1113 633.373
lclavicle 8.54774e-015 -9.93923e-015
lhumerus -30.8288 -1.94989 82.5579
lradius 28.7427
lwrist -1.04959
lhand -21.5066 -14.3116
lfingers 7.12502
lthumb 4.88524 15.6121
rfemur -35.4584 7.70307 10.5382
rtibia 21.9602
rfoot -20.0958 -5.99991
rtoes -22.7059
lfemur -34.0298 -15.2423 -18.4586
ltibia 34.8472
lfoot -14.7045 5.12536
ltoes -31.7689
533
root 3.54941 17.9904 17.6968 -153.318 -2.59331 173.472
lowerback -22.4534 -2.44266 -5.23567
upperback 0.505587 -2.06824 0.31741
thorax 13.4446 -1.39863 2.64635
lowerneck 0.615463 -4.48988 -0.200883
upperneck 24.6202 -3.70208 -0.00930338
head 7.44765 -0.865662 -0.0725182
rclavicle -9.14409e-015 0
rhumerus -44.3947 -15.1672 -74.0091
rradius 34.2858
rwrist -5.16883
rhand -8.38691 -57.4907
rfingers 7.12502
rthumb 17.5365 633.28
lclavicle -9.14409e-015 0
lhumerus -30.9721 -1.94556 82.5991
lradius 28.684
lwrist -1.0107
lhand -21.675 -13.5823
lfingers 7.12502
lthumb 4.72255 16.3451
rfemur -35.2608 7.5461 10.6841
rtibia 21.5696
rfoot -19.9604 -5.89444
rtoes -22.6809
lfemur -34.2874 -15.2413 -18.8848
ltibia 34.1224
lfoot -14.8514 4.95488
ltoes -31.4688
534
root 3.57069 17.9945 17.6728 -153.238 -2.65375 173.442
lowerback -22.7921 -2.46507 -5.17143
upperback 0.617848 -2.08293 0.27633
thorax 13.7671 -1.40498 2.54798
lowerneck 0.521872 -4.38108 -0.200624
upperneck 24.5152 -3.59875 0.081375
head 7.43056 -0.820004 -0.038886
rclavicle -2.32578e-014 -1.98785e-015
rhumerus -44.1462 -15.1653 -74.2075
rradius 34.3343
rwrist -5.27295
rhand -8.74912 -57.1161
rfingers 7.12502
rthumb 17.1879 633.624
lclavicle -2.32578e-014 -1.98785e-015
lhumerus -30.8255 -2.00351 82.5552
lradius 28.4735
lwrist -0.965381
lhand -21.8021 -13.3844
lfingers 7.12502
lthumb 4.59989 16.5457
rfemur -35.0684 7.57758 10.7274
rtibia 21.2092
rfoot -19.831 -5.85533
rtoes -22.0464
lfemur -34.5401 -15.2599 -19.3195
ltibia 33.3942
lfoot -15.0095 4.62759
ltoes -31.1502
535
root 3.59136 17.9978 17.651 -153.185 -2.65487 173.423
lowerback -22.6914 -2.41037 -5.18101
upperback 0.477543 -2.02378 0.242807
thorax 13.5376 -1.37499 2.5397
lowerneck 0.557562 -4.43704 -0.20481
upperneck 24.5525 -3.68551 0.189159
head 7.43935 -0.846981 -0.00703392
rclavicle 2.5842e-015 -6.36111e-015
rhumerus -44.3737 -15.1595 -74.1848
rradius 34.3301
rwrist -5.47586
rhand -9.2525 -56.7801
rfingers 7.12502
rthumb 16.7034 633.919
lclavicle 2.5842e-015 -6.36111e-015
lhumerus -31.1323 -2.28256 82.5386
lradius 28.3358
lwrist -0.912385
lhand -21.8784 -13.6772
lfingers 7.12502
lthumb 4.52621 16.2545
rfemur -34.9215 7.72921 10.715
rtibia 20.9342
rfoot -19.7337 -5.864
rtoes -21.4386
lfemur -34.7588 -15.2508 -19.7673
ltibia 32.6929
lfoot -15.0934 4.20069
ltoes -32.1871
536
root 3.61065 18.0027 17.6334 -153.168 -2.69334 173.359
lowerback -22.8508 -2.37407 -5.25071
upperback 0.557146 -1.934 0.180062
thorax 13.7143 -1.33952 2.53423
lowerneck 0.491069 -4.5293 -0.181917
upperneck 24.4899 -3.88829 0.444172
head 7.43574 -0.927551 0.0586697
rclavicle -5.96354e-015 -3.18055e-015
rhumerus -44.251 -15.3951 -74.2645
rradius 34.3472
rwrist -5.56241
rhand -9.23071 -57.0223
rfingers 7.12502
rthumb 16.7243 633.678
lclavicle -5.96354e-015 -3.18055e-015
lhumerus -31.007 -2.47179 82.426
lradius 28.1353
lwrist -0.878599
lhand -21.7 -13.7692
lfingers 7.12502
lthumb 4.69842 16.1587
rfemur -34.7846 7.74479 10.7333
rtibia 20.7844
rfoot -19.7243 -5.86656
rtoes -21.437
lfemur -34.9282 -15.3586 -20.2491
ltibia 31.9865
lfoot -15.0244 3.7634
ltoes -34.7384
537
root 3.62737 18.0085 17.6147 -153.121 -2.69108 173.251
lowerback -22.6535 -2.39113 -5.28026
upperback 0.375844 -1.97013 0.105353
thorax 13.3897 -1.3513 2.46009
lowerneck 0.376274 -4.52426 -0.189723
upperneck 24.8054 -3.84835 0.506077
head 7.5628 -0.8832 0.0825357
rclavicle 5.96354e-015 4.77083e-015
rhumerus -44.4399 -15.1712 -74.4358
rradius 34.4743
rwrist -5.75551
rhand -9.11054 -57.6351
rfingers 7.12502
rthumb 16.84 633.075
lclavicle 5.96354e-015 4.77083e-015
lhumerus -31.3293 -2.31434 82.236
lradius 27.962
lwrist -1.15313
lhand -21.4379 -13.6172
lfingers 7.12502
lthumb 4.9515 16.305
rfemur -34.7158 7.62525 10.7395
rtibia 20.707
rfoot -19.72 -5.78606
rtoes -21.8907
lfemur -35.1051 -15.6299 -20.7357
ltibia 31.2211
lfoot -14.8682 3.36617
ltoes -36.1171
538
root 3.64432 18.0138 17.5915 -153.116 -2.69402 173.227
lowerback -22.8824 -2.5921 -5.42437
upperback 0.500064 -2.20084 0.351443
thorax 13.7048 -1.48111 2.73642
lowerneck 0.13302 -4.34857 -0.73186
upperneck 24.8252 -3.57425 0.402838
head 7.62213 -0.822314 0.152429
rclavicle 8.94531e-015 7.15625e-015
rhumerus -43.8977 -14.5841 -74.4538
rradius 34.4736
rwrist -5.95344
rhand -9.05047 -58.0053
rfingers 7.12502
rthumb 16.8979 632.71
lclavicle 8.94531e-015 7.15625e-015
lhumerus -31.2028 -1.43185 82.3731
lradius 27.6486
lwrist -1.69712
lhand -21.6061 -13.655
lfingers 7.12502
lthumb 4.78916 16.2709
rfemur -34.5014 7.53592 10.8363
rtibia 20.4317
rfoot -19.7087 -5.69368
rtoes -21.9945
lfemur -35.1699 -15.8972 -21.0901
ltibia 30.332
lfoot -14.7454 2.95816
ltoes -36.3853
539
root 3.66434 18.0214 17.5698 -153.265 -2.82133 173.231
lowerback -22.7932 -2.5111 -5.44417
upperback 0.514445 -2.08448 0.298154
thorax 13.6581 -1.4258 2.72947
lowerneck 0.427513 -4.46915 -0.566348
upperneck 24.6511 -3.74831 0.40768
head 7.5091 -0.888864 0.119864
rclavicle 1.51076e-014 7.95139e-016
rhumerus -44.0582 -14.858 -74.5084
rradius 34.5651
rwrist -6.36679
rhand -8.5616 -57.8568
rfingers 7.12502
rthumb 17.3684 632.899
lclavicle 1.51076e-014 7.95139e-016
lhumerus -31.2129 -1.71777 82.3702
lradius 27.3263
lwrist -1.94563
lhand -21.895 -13.9794
lfingers 7.12502
lthumb 4.51016 15.9526
rfemur -34.0238 7.68686 10.9352
rtibia 19.999
rfoot -19.6899 -5.81153
rtoes -21.2856
lfemur -35.0384 -16.1608 -21.3916
ltibia 29.4796
lfoot -14.918 2.42005
ltoes -33.445
540
root 3.68639 18.0263 17.5514 -153.301 -2.86827 173.232
lowerback -22.6107 -2.49937 -5.48069
upperback 0.394526 -2.07703 0.259135
thorax 13.4119 -1.41959 2.71419
lowerneck 0.904051 -4.46543 -0.417394
upperneck 24.3302 -3.76784 0.477747
head 7.31661 -0.882813 0.123951
rclavicle -1.78906e-015 -7.55382e-015
rhumerus -44.2702 -14.8145 -74.6403
rradius 34.5895
rwrist -6.66307
rhand -7.95408 -57.7925
rfingers 7.12502
rthumb 17.953 633.016
lclavicle -1.78906e-015 -7.55382e-015
lhumerus -31.407 -1.7144 82.2526
lradius 27.1386
lwrist -2.15258
lhand -21.9037 -14.184
lfingers 7.12502
lthumb 4.50174 15.7482
rfemur -33.7915 7.97097 10.9646
rtibia 19.7239
rfoot -19.6393 -6.00122
rtoes -20.775
lfemur -35.0851 -16.3783 -21.6273
ltibia 28.7784
lfoot -15.1852 1.83611
ltoes -28.0351
541
root 3.70636 18.0297 17.5324 -153.298 -2.84222 173.326
lowerback -22.8219 -2.48419 -5.49251
upperback 0.473555 -2.03897 0.296299
thorax 13.6236 -1.40864 2.77054
lowerneck 0.859629 -4.44441 -0.465125
upperneck 24.3188 -3.76396 0.585219
head 7.32394 -0.878844 0.166448
rclavicle -2.20651e-014 7.95139e-015
rhumerus -44.1007 -14.9401 -74.6563
rradius 34.5125
rwrist -6.08898
rhand -8.26075 -57.8964
rfingers 7.12502
rthumb 17.6579 632.885
lclavicle -2.20651e-014 7.95139e-015
lhumerus -31.2545 -1.63586 82.2137
lradius 26.9691
lwrist -2.22529
lhand -21.7875 -14.1534
lfingers 7.12502
lthumb 4.61394 15.7763
rfemur -33.6834 8.08434 11.1561
rtibia 19.6157
rfoot -19.6072 -5.9947
rtoes -20.658
lfemur -35.1673 -16.4876 -21.7624
ltibia 28.012
lfoot -15.076 1.58768
ltoes -26.5203
542
root 3.72012 18.0296 17.5104 -153.27 -2.7883 173.442
lowerback -22.9754 -2.46124 -5.43163
upperback 0.469321 -2.02676 0.372365
thorax 13.7056 -1.40426 2.82347
lowerneck 0.636754 -4.43311 -0.651728
upperneck 24.6193 -3.70461 0.579199
head 7.46726 -0.853647 0.197337
rclavicle -1.39149e-014 -8.74653e-015
rhumerus -44.0509 -14.8252 -74.6232
rradius 34.5103
rwrist -5.55699
rhand -8.4211 -58.2377
rfingers 7.12502
rthumb 17.5036 632.53
lclavicle -1.39149e-014 -8.74653e-015
lhumerus -31.2925 -1.5534 82.2284
lradius 26.853
lwrist -2.26584
lhand -21.7618 -13.9086
lfingers 7.12502
lthumb 4.63878 16.0206
rfemur -33.5857 8.02309 11.4194
rtibia 19.4962
rfoot -19.5733 -5.83478
rtoes -20.6441
lfemur -35.1744 -16.5568 -21.9328
ltibia 27.1374
lfoot -14.8913 1.79204
ltoes -28.8124
543
root 3.73554 18.0299 17.4883 -153.306 -2.73453 173.481
lowerback -23.1083 -2.45681 -5.45873
upperback 0.504413 -2.00704 0.402372
thorax 13.8232 -1.40109 2.87692
lowerneck 0.421307 -4.41704 -0.706881
upperneck 24.934 -3.62684 0.506744
head 7.60992 -0.811866 0.185957
rclavicle 2.18663e-015 -1.86858e-014
rhumerus -44.0165 -14.779 -74.6089
rradius 34.531
rwrist -5.42257
rhand -8.13568 -58.3042
rfingers 7.12502
rthumb 17.7783 632.488
lclavicle 2.18663e-015 -1.86858e-014
lhumerus -31.3595 -1.59234 82.2418
lradius 26.8358
lwrist -2.2067
lhand -21.7784 -13.7618
lfingers 7.12502
lthumb 4.62275 16.1678
rfemur -33.3686 7.87946 11.6378
rtibia 19.2619
rfoot -19.5263 -5.61233
rtoes -20.7339
lfemur -35.0491 -16.4505 -22.2813
ltibia 26.3573
lfoot -14.7828 1.85411
ltoes -30.8981
